#tb 0: 1/44100
#media_type 0: audio
#codec_id 0: pcm_s16le
#sample_rate 0: 44100
#channel_layout_name 0: mono
0,          0,          0,     1024,     2048, 0x490ff760
0,       1024,       1024,     1024,     2048, 0xc8a405cb
0,       2048,       2048,     1024,     2048, 0xeed6fd45
0,       3072,       3072,     1024,     2048, 0x8cabf8a0
0,       4096,       4096,     1024,     2048, 0x4707f6c1
0,       5120,       5120,     1024,     2048, 0xc1a50038
0,       6144,       6144,     1024,     2048, 0x3e75fa60
0,       7168,       7168,     1024,     2048, 0x988ffec2
0,       8192,       8192,     1024,     2048, 0x0537f926
0,       9216,       9216,     1024,     2048, 0x6919fd71
0,      10240,      10240,     1024,     2048, 0xeef4f7d0
0,      11264,      11264,     1024,     2048, 0xcf7a01c8
0,      12288,      12288,     1024,     2048, 0x2cf70048
0,      13312,      13312,     1024,     2048, 0x8a51fba6
0,      14336,      14336,     1024,     2048, 0x311af181
0,      15360,      15360,     1024,     2048, 0x8248009c
0,      16384,      16384,     1024,     2048, 0x9aa4010b
0,      17408,      17408,     1024,     2048, 0x1a2df2a0
0,      18432,      18432,     1024,     2048, 0xf6e2fb18
0,      19456,      19456,     1024,     2048, 0x548effbc
0,      20480,      20480,     1024,     2048, 0x965a01a9
0,      21504,      21504,     1024,     2048, 0x2554f834
0,      22528,      22528,     1024,     2048, 0xa390fdfc
0,      23552,      23552,     1024,     2048, 0x51d8f99b
0,      24576,      24576,     1024,     2048, 0xed47fd39
0,      25600,      25600,     1024,     2048, 0x79b8faeb
0,      26624,      26624,     1024,     2048, 0xf6da009c
0,      27648,      27648,     1024,     2048, 0x0ffbf6a2
0,      28672,      28672,     1024,     2048, 0xb6a6f823
0,      29696,      29696,     1024,     2048, 0x5cbefcb7
0,      30720,      30720,     1024,     2048, 0xb0eb06ea
0,      31744,      31744,     1024,     2048, 0x5edbf7ce
0,      32768,      32768,     1024,     2048, 0x490ff760
0,      33792,      33792,     1024,     2048, 0xc8a405cb
0,      34816,      34816,     1024,     2048, 0xeed6fd45
0,      35840,      35840,     1024,     2048, 0x8cabf8a0
0,      36864,      36864,     1024,     2048, 0x4707f6c1
0,      37888,      37888,     1024,     2048, 0xc1a50038
0,      38912,      38912,     1024,     2048, 0x3e75fa60
0,      39936,      39936,     1024,     2048, 0x988ffec2
0,      40960,      40960,     1024,     2048, 0x0537f926
0,      41984,      41984,     1024,     2048, 0x6919fd71
0,      43008,      43008,     1024,     2048, 0xeef4f7d0
0,      44032,      44032,     1024,     2048, 0xee07eb41
0,      45056,      45056,     1024,     2048, 0xd8d9f658
0,      46080,      46080,     1024,     2048, 0x9b30051b
0,      47104,      47104,     1024,     2048, 0x5605f37f
0,      48128,      48128,     1024,     2048, 0x6f6afd03
0,      49152,      49152,     1024,     2048, 0x9ca8fd97
0,      50176,      50176,     1024,     2048, 0x37f4fe98
0,      51200,      51200,     1024,     2048, 0x8e66fb1f
0,      52224,      52224,     1024,     2048, 0x3268f6cf
0,      53248,      53248,     1024,     2048, 0x4636fb46
0,      54272,      54272,     1024,     2048, 0xb413fbd5
0,      55296,      55296,     1024,     2048, 0xabfd08c3
0,      56320,      56320,     1024,     2048, 0x7810f6e4
0,      57344,      57344,     1024,     2048, 0xb59f19b5
0,      58368,      58368,     1024,     2048, 0xd8ea0714
0,      59392,      59392,     1024,     2048, 0xd49a00e4
0,      60416,      60416,     1024,     2048, 0xffed0128
0,      61440,      61440,     1024,     2048, 0x50cbec23
0,      62464,      62464,     1024,     2048, 0xe215f92b
0,      63488,      63488,     1024,     2048, 0xa8bb00e1
0,      64512,      64512,     1024,     2048, 0x2b55f854
0,      65536,      65536,     1024,     2048, 0xca1cf07e
0,      66560,      66560,     1024,     2048, 0xd059ff29
0,      67584,      67584,     1024,     2048, 0xdd43fcd5
0,      68608,      68608,     1024,     2048, 0x44edfacb
0,      69632,      69632,     1024,     2048, 0xd7bc00c0
0,      70656,      70656,     1024,     2048, 0x459ff45b
0,      71680,      71680,     1024,     2048, 0x11f5fed5
0,      72704,      72704,     1024,     2048, 0x2b670370
0,      73728,      73728,     1024,     2048, 0xe785fa99
0,      74752,      74752,     1024,     2048, 0xf8610009
0,      75776,      75776,     1024,     2048, 0xb8f80489
0,      76800,      76800,     1024,     2048, 0xa1cd0ec4
0,      77824,      77824,     1024,     2048, 0xad05fdbe
0,      78848,      78848,     1024,     2048, 0x7d630249
0,      79872,      79872,     1024,     2048, 0xc112f3d4
0,      80896,      80896,     1024,     2048, 0x6ed9fc34
0,      81920,      81920,     1024,     2048, 0xf2c0168a
0,      82944,      82944,     1024,     2048, 0x2fc416cd
0,      83968,      83968,     1024,     2048, 0xea5dff83
0,      84992,      84992,     1024,     2048, 0xe7dfff8f
0,      86016,      86016,     1024,     2048, 0xc61bfe88
0,      87040,      87040,     1024,     2048, 0xf7af08d2
0,      88064,      88064,     1024,     2048, 0xf7cde454
0,      89088,      89088,     1024,     2048, 0xeb07ed40
0,      90112,      90112,     1024,     2048, 0x6e71da7b
0,      91136,      91136,     1024,     2048, 0xe5ddd1fd
0,      92160,      92160,     1024,     2048, 0xcaebce96
0,      93184,      93184,     1024,     2048, 0x99dfd897
0,      94208,      94208,     1024,     2048, 0x5900db30
0,      95232,      95232,     1024,     2048, 0x9a43d998
0,      96256,      96256,     1024,     2048, 0x0ba2e7d3
0,      97280,      97280,     1024,     2048, 0x0402fa3c
0,      98304,      98304,     1024,     2048, 0xf300bf93
0,      99328,      99328,     1024,     2048, 0x0d3ae9a0
0,     100352,     100352,     1024,     2048, 0x7912f622
0,     101376,     101376,     1024,     2048, 0xca54e04f
0,     102400,     102400,     1024,     2048, 0x893bed83
0,     103424,     103424,     1024,     2048, 0x86a1e330
0,     104448,     104448,     1024,     2048, 0x6e5fce93
0,     105472,     105472,     1024,     2048, 0x4d63e86d
0,     106496,     106496,     1024,     2048, 0x8579c32c
0,     107520,     107520,     1024,     2048, 0xcfbfe80e
0,     108544,     108544,     1024,     2048, 0xdb8fe712
0,     109568,     109568,     1024,     2048, 0x6411ea85
0,     110592,     110592,    11503,    23006, 0xc0e6d24f
0,     122095,     122095,    22050,    44100, 0x5cb196ec
0,     144145,     144145,     1024,     2048, 0x51b4f388
0,     145169,     145169,     1024,     2048, 0x18580097
0,     146193,     146193,     1024,     2048, 0x1a42fd47
0,     147217,     147217,     1024,     2048, 0x07d4f9b6
0,     148241,     148241,     1024,     2048, 0x88b8fe81
0,     149265,     149265,     1024,     2048, 0x9409f791
0,     150289,     150289,     1024,     2048, 0x2f66019c
0,     151313,     151313,     1024,     2048, 0xdbcffacf
0,     152337,     152337,     1024,     2048, 0x63320225
0,     153361,     153361,     1024,     2048, 0x2e0af834
0,     154385,     154385,    11503,    23006, 0x3ca2bf8d
0,     165888,     165888,    22050,    44100, 0x2672d8d3
0,     187938,     187938,     1024,     2048, 0x466ee9c4
0,     188962,     188962,     1024,     2048, 0x091bfc2f
0,     189986,     189986,     1024,     2048, 0x174605be
0,     191010,     191010,     1024,     2048, 0x3a9ce183
0,     192034,     192034,     1024,     2048, 0x794651e0
0,     193058,     193058,     1024,     2048, 0xf411f059
0,     194082,     194082,     1024,     2048, 0xa70bfdc8
0,     195106,     195106,     1024,     2048, 0x129c0423
0,     196130,     196130,     1024,     2048, 0xe774effd
0,     197154,     197154,     1024,     2048, 0xd32912a6
0,     198178,     198178,     1024,     2048, 0x74d4fc97
0,     199202,     199202,     1024,     2048, 0xc72df7e1
0,     200226,     200226,     1024,     2048, 0x97230fc8
0,     201250,     201250,     1024,     2048, 0xd2e3f46c
0,     202274,     202274,     1024,     2048, 0xc7b30179
0,     203298,     203298,     1024,     2048, 0xb7c50386
0,     204322,     204322,     1024,     2048, 0x9cb5015e
0,     205346,     205346,     1024,     2048, 0x722b1be6
0,     206370,     206370,     1024,     2048, 0xa09cf2de
0,     207394,     207394,     1024,     2048, 0xb606049e
0,     208418,     208418,     1024,     2048, 0x2297fb20
0,     209442,     209442,     1024,     2048, 0x8304eecc
0,     210466,     210466,     1024,     2048, 0xaf871147
0,     211490,     211490,     1024,     2048, 0xdcd903b5
0,     212514,     212514,     1024,     2048, 0xa05f083b
0,     213538,     213538,     1024,     2048, 0x4d080bde
0,     214562,     214562,     1024,     2048, 0x5b90f27c
0,     215586,     215586,     1024,     2048, 0x63650d99
0,     216610,     216610,     1024,     2048, 0x8592fe4f
0,     217634,     217634,     1024,     2048, 0x0311fef3
0,     218658,     218658,     1024,     2048, 0x250b07f6
0,     219682,     219682,     1024,     2048, 0x9173f1ae
0,     220706,     220706,     1024,     2048, 0x9ee70ea7
0,     221730,     221730,     1024,     2048, 0xdcf0fc2e
0,     222754,     222754,     1024,     2048, 0xcc4bf2ad
0,     223778,     223778,     1024,     2048, 0xacb916e9
0,     224802,     224802,     1024,     2048, 0xd117160d
0,     225826,     225826,     1024,     2048, 0xf0950812
0,     226850,     226850,     1024,     2048, 0x4150fa95
0,     227874,     227874,     1024,     2048, 0xd055f448
0,     228898,     228898,     1024,     2048, 0x0231086f
0,     229922,     229922,     1024,     2048, 0x0e04e5c5
0,     230946,     230946,     1024,     2048, 0x6ee9fbc5
0,     231970,     231970,     1024,     2048, 0x1fe6008b
0,     232994,     232994,     1024,     2048, 0x4582e8a2
0,     234018,     234018,     1024,     2048, 0x11a603ff
0,     235042,     235042,     1024,     2048, 0x20bef6f3
0,     236066,     236066,     1024,     2048, 0x2b00f4e5
0,     237090,     237090,     1024,     2048, 0x4c34f70f
0,     238114,     238114,     1024,     2048, 0x6d44dc84
0,     239138,     239138,     1024,     2048, 0x434d058d
0,     240162,     240162,     1024,     2048, 0x301bf3cd
0,     241186,     241186,     1024,     2048, 0xbf8efd3c
0,     242210,     242210,     1024,     2048, 0x5e3f099f
0,     243234,     243234,     1024,     2048, 0x30dae724
0,     244258,     244258,     1024,     2048, 0x0362f4b5
0,     245282,     245282,     1024,     2048, 0x4596f032
0,     246306,     246306,     1024,     2048, 0x9593ec8d
0,     247330,     247330,     1024,     2048, 0x882d05ef
0,     248354,     248354,     1024,     2048, 0x83daead3
0,     249378,     249378,     1024,     2048, 0x5c67fa0d
0,     250402,     250402,     1024,     2048, 0xdaecf969
0,     251426,     251426,     1024,     2048, 0xbb2af075
0,     252450,     252450,     1024,     2048, 0x51aa06bd
0,     253474,     253474,     1024,     2048, 0x466ee9c4
0,     254498,     254498,     1024,     2048, 0x091bfc2f
0,     255522,     255522,     1024,     2048, 0x174605be
0,     256546,     256546,     1024,     2048, 0x3a9ce183
0,     257570,     257570,     1024,     2048, 0x794651e0
0,     258594,     258594,     1024,     2048, 0xf411f059
0,     259618,     259618,     1024,     2048, 0xa70bfdc8
0,     260642,     260642,     1024,     2048, 0x129c0423
0,     261666,     261666,     1024,     2048, 0xe774effd
0,     262690,     262690,     1024,     2048, 0xd32912a6
0,     263714,     263714,     1024,     2048, 0x3a05067f
